<?xml version="1.0" encoding="UTF-8"?>
<svg width="266px" height="272px" viewBox="0 0 266 272" version="1.1" xmlns="http://www.w3.org/2000/svg" xmlns:xlink="http://www.w3.org/1999/xlink">
    <!-- Generator: Sketch 52.6 (67491) - http://www.bohemiancoding.com/sketch -->
    <title>Untitled</title>
    <desc>Created with Sketch.</desc>
    <defs>
        <linearGradient x1="50%" y1="1.29154624%" x2="50%" y2="97.8684971%" id="linearGradient-1">
            <stop stop-color="#ED8A0B" stop-opacity="0.905457428" offset="0%"></stop>
            <stop stop-color="#CE4614" offset="100%"></stop>
        </linearGradient>
    </defs>
    <g id="Page-1" stroke="none" stroke-width="1" fill="none" fill-rule="evenodd">
        <path d="M142.499981,154.107013 C167.2971,139.878301 184,113.139736 184,82.5 C184,51.8602637 167.2971,25.1216988 142.499981,10.8929867 C154.577985,3.96258451 168.576237,0 183.5,0 C229.063492,0 266,36.9365081 266,82.5 C266,128.063492 229.063492,165 183.5,165 C168.576237,165 154.577985,161.037415 142.5,154.107003 Z" id="Combined-Shape" fill="url(#linearGradient-1)" fill-rule="nonzero"></path>
        <path d="M121.749991,281.357023 C146.547109,267.12831 163.250009,240.389746 163.250009,209.750009 C163.250009,179.110273 146.547109,152.371708 121.749991,138.142996 C133.827994,131.212594 147.826246,127.250009 162.750009,127.250009 C208.313501,127.250009 245.250009,164.186517 245.250009,209.750009 C245.250009,255.313501 208.313501,292.250009 162.750009,292.250009 C147.826246,292.250009 133.827994,288.287425 121.750009,281.357012 Z" id="Combined-Shape-Copy" fill="url(#linearGradient-1)" fill-rule="nonzero" transform="translate(183.500000, 209.750009) rotate(90.000000) translate(-183.500000, -209.750009) "></path>
        <path d="M1.12498606,261.107013 C25.9221046,246.878301 42.6250046,220.139736 42.6250046,189.5 C42.6250046,158.860264 25.9221046,132.121699 1.12498606,117.892987 C13.2029894,110.962585 27.2012414,107 42.1250046,107 C87.6884965,107 124.625005,143.936508 124.625005,189.5 C124.625005,235.063492 87.6884965,272 42.1250046,272 C27.2012414,272 13.2029894,268.037415 1.12500466,261.107003 Z" id="Combined-Shape-Copy-3" fill="url(#linearGradient-1)" fill-rule="nonzero" transform="translate(62.874995, 189.500000) scale(-1, -1) translate(-62.874995, -189.500000) "></path>
        <path d="M21.3749954,133.857004 C46.1721139,119.628292 62.8750139,92.889727 62.8750139,62.2499907 C62.8750139,31.6102544 46.1721139,4.87168951 21.3749954,-9.35702255 C33.4529987,-16.2874248 47.4512507,-20.2500093 62.3750139,-20.2500093 C107.938506,-20.2500093 144.875014,16.6864988 144.875014,62.2499907 C144.875014,107.813483 107.938506,144.749991 62.3750139,144.749991 C47.4512507,144.749991 33.4529987,140.787406 21.3750139,133.856993 Z" id="Combined-Shape-Copy-2" fill="url(#linearGradient-1)" fill-rule="nonzero" transform="translate(83.125005, 62.249991) scale(-1, -1) rotate(90.000000) translate(-83.125005, -62.249991) "></path>
    </g>
</svg>